PathFileType	4	(X/Y/Z)	Patient4_TMGait_0pt2_01_right_10.trc.trc
DataRate	CameraRate	NumFrames	NumMarkers	Units	OrigDataRate	OrigDataStartFrame	OrigNumFrames
41.543026706231	41.543026706231	6	33	mm	41.543026706231	106	       141
Frame#	Time	Sacral			L.Shoulder			Chest			R.Shoulder			Neck			R.ASIS			L.ASIS			R.Thigh.Superior			R.Thigh.Lateral			R.Thigh.Inferior			R.Patella			L.Thigh.Superior			L.Thigh.Lateral			L.Thigh.Inferior			L.Patella			L.Shank.Superior			L.Shank.Lateral			L.Shank.Inferior			R.Shank.Superior			R.Shank.Lateral			R.Shank.Inferior			R.Heel			R.Midfoot.Superior			R.Midfoot.Lateral			R.Toe			L.Heel			L.Midfoot.Lateral			L.Midfoot.Superior			L.Toe			L.Elbow			L.Wrist			R.Elbow			R.Wrist			
		X1	Y1	Z1	X2	Y2	Z2	X3	Y3	Z3	X4	Y4	Z4	X5	Y5	Z5	X6	Y6	Z6	X7	Y7	Z7	X8	Y8	Z8	X9	Y9	Z9	X10	Y10	Z10	X11	Y11	Z11	X12	Y12	Z12	X13	Y13	Z13	X14	Y14	Z14	X15	Y15	Z15	X16	Y16	Z16	X17	Y17	Z17	X18	Y18	Z18	X19	Y19	Z19	X20	Y20	Z20	X21	Y21	Z21	X22	Y22	Z22	X23	Y23	Z23	X24	Y24	Z24	X25	Y25	Z25	X26	Y26	Z26	X27	Y27	Z27	X28	Y28	Z28	X29	Y29	Z29	X30	Y30	Z30	X31	Y31	Z31	X32	Y32	Z32	X33	Y33	Z33	

106	23.627500000000	773.946530894482	987.981005932477	374.626330076303	954.047970089910	1428.627677352728	222.531421489762	1036.650654212974	1361.031912379524	394.435829244877	929.773566514554	1423.567715538076	559.080615368878	912.359306950909	1486.393750747595	379.604629729514	993.609872002101	934.786801277022	516.661567903372	1009.806391365059	957.995452144645	242.162012878969	1072.966837778628	752.441644440826	490.454139711929	1019.155212141128	634.445419512099	559.271190960194	1109.328861752694	587.713308837217	484.414641212820	1117.442825325830	475.839025886613	512.496216969260	1065.159888370495	745.902117499122	289.636017789974	991.841040989696	617.225120124753	232.265826253752	1070.257924889987	550.590316643365	312.403413589934	1072.285093135717	478.415884199095	326.288905030689	1035.773347442894	403.037672472173	320.969291881460	941.777213467901	294.361270474208	266.549638062067	967.922097128047	184.711443002314	349.932621632141	1037.395607505507	405.939348899266	522.803829519193	909.513803855138	374.522479652267	576.048277275877	897.842908815085	260.261394702572	537.596012370740	698.021417083270	200.568494332164	495.573734816992	859.238073370756	142.346099286719	561.964243156342	747.026347724697	148.991561901447	581.500809721009	916.592105375451	33.951456922430	607.895394007118	822.107935946100	38.645737756218	386.959676804846	901.129056078705	35.494420219553	310.862851320811	983.333732846791	95.665199160580	343.423981378895	1112.761822280005	43.288266793519	322.816937668918	1043.545644556127	1090.853131896745	91.844705179794	1243.519680014369	932.084782057177	152.652764465859	844.208454062619	1083.752718942097	667.687329410767	871.070171277200	822.154204383078	675.915915855891	
107	23.651571428571	773.232058197936	989.226514311071	370.701519284525	957.052551183289	1430.022535434008	221.666947618177	1036.135957300347	1362.146501363425	395.022776412736	926.054518601592	1424.813540311123	557.585968162012	912.316569680547	1487.385979462697	378.129949204664	990.730666726316	936.256107476773	515.932312360633	1010.367111908525	958.367458774560	241.857815120155	1072.014335649629	755.502376098082	489.661780772769	1019.355205865291	636.976774118118	558.378432737711	1110.030927704421	591.188737645031	483.657131088130	1120.067610404382	480.027932072636	511.945553618494	1063.412474692264	745.109308347382	288.652377875957	988.607072721305	617.350779692214	231.072187546351	1065.965478301347	549.950704803758	311.341577248112	1067.192827589310	478.107901422047	325.423948117125	1030.736034293018	403.006090519797	320.088309096763	936.908352409699	294.196852856385	265.686979189659	962.986562699969	184.755508638145	349.487997572614	1042.123857659328	408.451106467220	522.019461367962	915.307167195326	372.926973469431	574.437672264630	907.983967884551	258.421660326495	535.978094776016	711.070017223846	189.606540743872	493.157716893398	874.256226560593	140.937624911506	559.926052068472	762.388204738927	141.484833915963	579.406010143230	936.981116602709	35.576963032914	606.341132880955	817.204699085453	38.673681472880	386.873413320596	896.269139918993	35.450648678660	310.782147712993	978.497496685026	95.610889269585	343.279998048213	1107.931120806393	43.156734322155	322.803705957620	1049.952399388480	1093.981418964517	89.928048287362	1257.908365530878	946.916807822349	152.741281480754	827.111847232677	1088.847081219400	663.432113127285	844.887237782365	826.978724792658	671.304397276450	
108	23.675642857143	772.537609413550	991.051125660796	367.066782778143	960.179206549124	1431.728896983444	220.986467672927	1035.677196768222	1363.692290864954	395.771262395011	922.463569574748	1426.681242140794	556.136642105424	912.378428085794	1488.812381147860	376.726211740065	987.676723993668	938.213814002776	515.686686183101	1010.986838397501	959.091320660588	242.081085797017	1070.051230293575	758.437930379246	489.688578791506	1017.812354932816	639.658856745536	558.274195874547	1108.790240777321	594.438963288490	483.872929149704	1120.694210042278	484.525457061377	512.237499574143	1061.109302844774	744.464830115114	288.167861898072	984.559665945687	617.848992939884	230.075418829533	1060.609406648926	549.475561356156	310.437716103144	1060.856813994352	478.063101667253	324.636833825254	1024.749318012463	403.333303482772	319.200068182650	931.316242591622	294.185396158943	264.829148665083	957.694818194077	184.994977339895	349.028563016631	1045.762900236189	410.973533452942	522.233181840261	921.125116748651	369.964488060915	574.507577416858	919.217721224821	255.485592672650	535.860526275251	726.433133576521	175.378696549607	493.295639829650	891.860082052715	138.322731325343	559.391569529688	780.907645608143	131.468116727540	579.488890421936	961.241535133744	37.646217960178	605.763124715251	812.282759539074	38.688263226469	386.796834977086	891.386904156615	35.406180615048	310.706298181257	973.627265585634	95.580332102592	343.118707496182	1103.070751917712	43.082989469705	322.793274304201	1055.996396221123	1097.253722546452	88.499759921373	1271.110167156021	962.106609061313	152.940458767426	811.520896725300	1094.475815629399	658.623621716750	821.672641350557	832.680061779826	665.522240421037	
109	23.699714285714	771.845240863525	993.295546024571	363.748342475067	963.390087662690	1433.607283912493	220.487367861534	1035.277469016134	1365.517788462120	396.659797973684	919.047320571459	1428.996494397220	554.749027878335	912.552269336202	1490.539229435440	375.409196341951	984.490060391528	940.524024407948	515.880799651863	1011.648577017904	960.059594680322	242.755701851474	1067.171742519562	761.109404941796	490.505306446460	1014.634353723020	642.340821726641	558.925913830039	1105.751042091722	597.315301291736	485.028397086223	1119.450328066515	489.186605695661	513.305129548410	1058.327773258097	743.941906759991	288.173919418339	979.874439313320	618.639340038000	229.277345992313	1054.401773321052	549.140502325680	309.713099592074	1053.526324597354	478.230587440293	323.944406094057	1018.019850560531	403.949600071450	318.331173726138	925.146767529970	294.303793714079	264.007141642080	952.121492290248	185.387601337511	348.574726850753	1048.410635032325	413.473256746448	523.394825312531	927.138070985484	365.844343624062	576.232072925723	931.579172433900	251.753357090813	537.264706488199	744.288466695570	158.775546225871	495.953319480107	911.890052490862	134.797617030030	560.411036161459	802.509762320896	119.679812095258	581.736794170673	988.770160025310	40.210830566059	606.269191602553	807.352472944069	38.691041443388	386.734203308398	886.487850933966	35.363484051464	310.640364402995	968.732706390047	95.568785270030	342.952707406274	1098.188644041077	43.054917478650	322.786707577341	1061.739577556399	1100.537382333708	87.563305806016	1283.195733621626	977.452961581211	153.303486135273	797.610306364541	1100.332197424324	653.395050065814	801.356585495714	838.738768249382	658.812153243211	
110	23.723785714286	771.139287926678	995.768827473113	360.782562524138	966.634644775258	1435.498688562320	220.171629777536	1034.937814275562	1367.447181080783	397.670431872059	915.850781519432	1431.557315424501	553.450303508655	912.842846927990	1492.409537856775	374.205185836092	981.222586919942	943.017521317919	516.458615531023	1012.313126036187	961.138650247737	243.798004494245	1063.508751822986	763.388596334310	492.061813122614	1010.007032389423	644.870229218007	560.273788854043	1101.146510758166	599.697550562859	487.051450196937	1116.547469433945	493.860741459952	515.044100152362	1055.173611876999	743.501938422828	288.637436830602	974.760643238849	619.622835318720	228.677205101091	1047.606125022334	548.908527470165	309.178994143325	1045.509922261747	478.544029847227	323.360017529937	1010.795980925267	404.765656340327	317.511993054582	918.578863650788	294.521034469701	263.256414483768	946.359965437448	185.882015540364	348.148962192815	1050.196135742865	415.929800554416	525.386880735757	933.468052289204	360.862073302104	579.441752800482	945.002806394501	247.597493433209	540.064158660701	764.617034623781	140.844484870117	500.861581821084	934.032572040895	130.746278374203	562.858292734449	826.910740008314	106.954679145061	585.904215344215	1018.788409680227	43.310604592287	607.771994287824	802.424543132351	38.684983210535	386.688543326410	881.578508152623	35.325211764898	310.589196825087	963.824585858240	95.570621628373	342.795140831549	1093.293573958019	43.058592379259	322.784282589477	1067.241961038828	1103.695406806749	87.109344006986	1294.247446795794	992.762758230081	153.882241241333	785.440684364722	1106.117890644950	647.923860662870	783.779718956254	844.727228911834	651.451115523107	
111	23.747857142857	770.411030076808	998.270269739494	358.207932334920	969.851582036930	1437.244642322998	220.046849996037	1034.655891650805	1369.303350474435	398.791925278712	912.912504793019	1434.158188048425	552.278112011225	913.249032096441	1494.262235782675	373.150032205174	977.932486587211	945.510403084584	517.359548162857	1012.934400051059	962.191184876245	245.127426405500	1059.226186295626	765.172260226432	494.288289766135	1004.187978865103	647.106735217927	562.231010463095	1095.289346844219	601.507111877276	489.832214480508	1112.271447818301	498.402133397126	517.322564244661	1051.774694524785	743.102282405718	289.507119554806	969.442954696047	620.696079221298	228.270956613027	1040.509031313670	548.735890126573	308.836927364004	1037.142210745427	478.930813546355	322.892511419270	1003.340552851729	405.683697165735	316.773541445351	911.805921252087	294.802405447870	262.611760718419	940.511688193058	186.423699906111	347.772914774439	1051.272574501405	418.329305797909	528.036702366254	940.167625633098	355.362679907946	583.840431998597	959.312343039660	243.412021665357	543.998056706099	787.165668751684	122.678718554517	507.542521976891	957.825296537166	126.584932300882	566.454911699327	853.606390188125	94.126234532075	591.541803310333	1050.391520887624	46.944269633358	610.008706908905	797.508262649335	38.673866581196	386.660894746520	876.665464975919	35.293819884388	310.556630490435	958.913108132664	95.580199769773	342.657782500924	1088.393775284919	43.079921034967	322.785566948562	1072.556486432746	1106.601973290020	87.119330326439	1304.348409622676	1007.862811403943	154.722544476479	774.968241681303	1111.571636297245	642.414249664729	768.717855795538	850.321325434818	643.740468317903	
